<svg width="487" height="156" viewBox="0 0 487 156" fill="none" xmlns="http://www.w3.org/2000/svg">
<path d="M163.2 53.6999C163.2 39.5999 157.7 26.2999 147.8 16.3999C137.9 6.49991 124.6 0.999911 110.5 0.999911C100.1 0.999911 90.2001 3.99991 81.8001 9.39991C61.1001 -4.10009 33.7001 -1.40009 15.8001 16.3999C-6.59989 38.6999 -1.3999 71.2999 16.2001 88.8999L18.1001 90.7999L83.2001 26.2999C90.5001 18.9999 100.2 14.9999 110.5 14.9999C120.8 14.9999 130.6 18.9999 137.8 26.2999C145.1 33.5999 149.1 43.2999 149.1 53.5999C149.1 63.9999 145.1 73.6999 137.9 80.8999L72.8001 145.4L82.8001 155.4L135.1 103.7L135 103.6L147.8 90.8999C157.8 81.0999 163.2 67.7999 163.2 53.6999ZM25.8001 26.3999C37.6001 14.5999 55.9001 12.0999 70.4001 19.1999L18.4001 70.5999C11.4001 56.1999 13.8001 38.2999 25.8001 26.3999Z" fill="#F15B5E"/>
<path d="M133.1 54.5C133.1 48.3 130.7 42.4 126.3 38C121.9 33.6 116.1 31.2 109.8 31.2C103.6 31.2 97.7002 33.6 93.3002 38L28.9001 101.7L38.9001 111.7L103.3 48C105 46.3 107.3 45.3 109.8 45.3C112.3 45.3 114.6 46.2 116.3 48C118 49.7 119 52 119 54.5C119 57 118.1 59.3 116.4 61L52.0002 124.7L62.0002 134.7L126.4 71C130.7 66.5 133.1 60.7 133.1 54.5Z" fill="#F15B5E"/>
<path d="M196.7 114.6L205.8 40.3H229.3C249.8 40.3 259.9 52.3 259.9 71.2C259.9 96.8 244.8 114.6 219.7 114.6H196.7V114.6ZM221.7 99.7C235.5 99.7 242.6 87.1 242.6 71.5C242.6 61.2 237.8 55.3 227.4 55.3H220.4L214.9 99.7H221.7Z" fill="#F15B5E"/>
<path d="M283.8 102.6C287.2 102.6 290.2 101.2 293.1 97.4L304.7 104.2C299.3 111.7 292.5 115.4 282.5 115.4C269.1 115.4 261.1 107.4 261.1 93.6001C261.1 77.1001 271.6 62.3 289.2 62.3C297.7 62.3 306.6 66.9 306.6 76.9C306.6 88.6 292.6 94.5 277.5 96.8L276.8 97.7C278.2 101.2 281.1 102.6 283.8 102.6ZM276.9 86.5L277.6 87C285.1 85.6 291.6 83.2 291.6 78.5C291.6 76.8 290.3 75.6001 288.1 75.6001C283.4 75.6001 278.8 79.6 276.9 86.5Z" fill="#F15B5E"/>
<path d="M329.3 115.6C316 115.6 307.6 107.8 307.6 93.3C307.6 76.9 318.3 62.5 335.8 62.5C344 62.5 350.6 65.6 354.3 71.3L342.3 80.2C340.3 77.1 337.4 76.4 334.8 76.4C328.2 76.5 323.4 84.1 323.4 92.6C323.4 99.7 327.3 101.5 330.3 101.5C333.4 101.5 336.2 100.2 339.2 96.5L351.4 104.2C346.2 111.7 339.1 115.6 329.3 115.6Z" fill="#F15B5E"/>
<path d="M375.2 102.6C378.6 102.6 381.6 101.2 384.5 97.4L396.1 104.2C390.7 111.7 383.9 115.4 373.9 115.4C360.5 115.4 352.5 107.4 352.5 93.6001C352.5 77.1001 363 62.3 380.6 62.3C389.1 62.3 398 66.9 398 76.9C398 88.6 384 94.5 368.9 96.8L368.2 97.7C369.7 101.2 372.5 102.6 375.2 102.6ZM368.3 86.5L369 87C376.5 85.6 383 83.2 383 78.5C383 76.8 381.7 75.6001 379.5 75.6001C374.8 75.6001 370.2 79.6 368.3 86.5Z" fill="#F15B5E"/>
<path d="M448 83.8L443.9 115.1H428.3L432 87.4C433 80.4 432.4 77.1 429 77.1C424.3 77.1 417.7 83.5 416 96.2L413.7 115.1H398L404.3 63.9H420L419.1 71.4H419.3C423.8 65.9 429.5 63 436.4 63C445.9 63 449.9 69.5 448 83.8Z" fill="#F15B5E"/>
<path d="M481.5 112.4C477 114.9 472.5 116.1 467.7 116.1C459.8 116.1 454.1 111.6 455.5 99.7999L458.3 76.6999H453.2L454.7 63.9999H459.9L461.8 49.0999L477.9 45.8999L475.7 63.9999H486.3L484.8 76.6999H474L471.5 97.6999C471.1 100.6 472.1 101.9 473.8 101.9C475.2 101.9 476.9 101.3 479 100.3L481.5 112.4Z" fill="#F15B5E"/>
</svg>
