<svg xmlns="http://www.w3.org/2000/svg" xmlns:xlink="http://www.w3.org/1999/xlink" viewBox="0 0 867.3 576.81"><defs><style>.cls-1,.cls-5,.cls-6{fill:none;}.cls-2{fill:url(#linear-gradient);}.cls-3{fill:#f2e7e0;}.cls-4{clip-path:url(#clip-path);}.cls-5,.cls-6{stroke:#fff;stroke-miterlimit:10;}.cls-5{stroke-linecap:round;stroke-width:2px;}.cls-7{fill:#fff;}</style><linearGradient id="linear-gradient" y1="288.41" x2="867.3" y2="288.41" gradientUnits="userSpaceOnUse"><stop offset="0" stop-color="#f2e7e0"/><stop offset="0.42" stop-color="#f3e9e3"/><stop offset="0.7" stop-color="#f7f0ec"/><stop offset="0.95" stop-color="#fdfcfb"/><stop offset="1" stop-color="#fff"/></linearGradient><clipPath id="clip-path"><circle class="cls-1" cx="635.11" cy="219.39" r="139.4"/></clipPath></defs><g id="Layer_2" data-name="Layer 2"><g id="Layer_1-2" data-name="Layer 1"><path class="cls-2" d="M867.3,517.14s-4.27,16-27.63,20.11c-18,3.21-42.51-19.41-74.53-8-23.38,8.35-17.74,31.07-48.9,42.29-45.41,16.34-86.09-10.4-89.52-14-11.37-11.85-22.79-23.77-31.93-37.2-10.54-15.5-18.22-33.21-32.85-45.46C535.75,453,509.82,464.49,475,469.1c-12.8,1.7-82.26,14.54-116.87-16C313,413.26,362.9,365,286.6,315.88c-54.75-35.24-108.08-9.58-154-42.12-39-27.59-43.49-76.24-29.75-107.74,9.24-21.19,3.73-47.44-12-64.43C75.62,85.19,50.32,81.87,29,73.24,16.28,68.08,3.44,59.17,1.51,46.3-1.23,28.05-.33,17.76,4.91,0H866.69Z"/><ellipse class="cls-3" cx="275.43" cy="359.05" rx="26.57" ry="34.6" transform="translate(-168.14 448.63) rotate(-63.93)"/><g class="cls-4"><path class="cls-5" d="M699.85,189.26a5.53,5.53,0,0,0,4.24,4.76c4.82,1.15,5.1-8.13,11.7-6.2s3.87,9.35,8.83,10.73c3.36.94,5.92-1.63,6.81-2.62"/><path class="cls-5" d="M693.3,141.76a5.55,5.55,0,0,0-2.54,5.86c1,4.86,9.53,1.2,10.55,8s-6.86,7.45-6,12.52c.56,3.45,4,4.69,5.24,5.08"/><path class="cls-5" d="M720.75,177.15s4.1-5.31-.17-9.88c-2.08-2.21-5.27-3.34-9.76-1.92"/><path class="cls-5" d="M654.45,162.45s-6.53,1.57-6.05,7.81c.23,3,2,5.9,6.4,7.61"/><path class="cls-5" d="M704.83,183.48s-.3-6,4.67-8.76"/><path class="cls-5" d="M694.21,206.49s-.3-6.05,4.66-8.76"/><path class="cls-5" d="M631.25,128.49s-4.23,4.34-9.59,2.55"/><path class="cls-5" d="M694,157.39s-5.75,1.91-9.69-2.16"/><path class="cls-5" d="M696.49,222.83s-5.75,1.91-9.69-2.15"/><path class="cls-5" d="M730.54,154.44s-6.06,0-8.53-5.08"/><path class="cls-5" d="M742.22,214.12s-6.06,0-8.53-5.09"/><path class="cls-5" d="M777.75,196.6s5-3.42,9.91-.61"/><path class="cls-5" d="M605.47,159.56s5-3.42,9.91-.61"/><path class="cls-5" d="M678.42,184.27s-4.15-4.42-2.11-9.7"/><path class="cls-5" d="M713.23,197s4.07,12.57-6.68,17.35"/><path class="cls-5" d="M653.38,201.26a5.56,5.56,0,0,0-3.13,5.56c.47,4.94,9.35,2.18,9.66,9.05s-7.59,6.7-7.29,11.83c.21,3.49,3.46,5.08,4.69,5.6"/><path class="cls-5" d="M696.19,179.67a5.54,5.54,0,0,0-6.36-.5c-4.28,2.5,1.95,9.4-4.16,12.57s-9.26-4.07-13.79-1.65c-3.08,1.66-3.15,5.27-3.11,6.61"/><path class="cls-5" d="M671.61,217.11s6.35,2.16,9.29-3.37c1.42-2.67,1.45-6.06-1.34-9.85"/><path class="cls-5" d="M660.47,204.1s5.62-2.25,9.8,1.57"/><path class="cls-5" d="M650.37,216.44s-10.58,7.93-18.58-.69"/><path class="cls-5" d="M643.29,161.14a5.52,5.52,0,0,0-3.23-5.5c-4.5-2.08-6.59,7-12.68,3.78s-2-9.93-6.55-12.26c-3.11-1.58-6.12.43-7.19,1.23"/><path class="cls-5" d="M640.37,209a5.54,5.54,0,0,0,3.63-5.24c0-5-9.1-3.06-8.76-9.93s8.19-6,8.37-11.09c.13-3.49-3-5.38-4.13-6"/><path class="cls-5" d="M660.46,186a5.53,5.53,0,0,0,5.67-2.92c2.32-4.38-6.6-7-3.08-12.88s10-1.41,12.59-5.86c1.75-3-.09-6.14-.83-7.25"/><path class="cls-5" d="M719.23,236.79a5.55,5.55,0,0,0,4.35-4.66c.72-4.91-8.56-4.34-7.23-11.09s9-4.7,9.89-9.76c.63-3.43-2.15-5.75-3.22-6.55"/><path class="cls-5" d="M620.41,168.9s-5.06,4.39-1.77,9.72c1.6,2.58,4.51,4.31,9.19,3.81"/><path class="cls-5" d="M637.27,165.83s-.9,6-6.3,7.67"/><path class="cls-5" d="M631.7,150.89s-1.52-13.13,10-15.7"/><path class="cls-5" d="M667.35,158.6s-13-2.29-12.21-14"/><circle class="cls-6" cx="654.29" cy="192.5" r="1.86"/><circle class="cls-6" cx="619.51" cy="206.5" r="1.86"/><circle class="cls-6" cx="690.92" cy="197.09" r="1.86"/><circle class="cls-6" cx="702" cy="230.73" r="1.86"/><circle class="cls-6" cx="671.23" cy="232.38" r="1.86"/><circle class="cls-6" cx="665.95" cy="222.89" r="1.86"/><circle class="cls-6" cx="742.23" cy="206.3" r="1.86"/><circle class="cls-6" cx="643.1" cy="144.93" r="1.86"/><circle class="cls-6" cx="705.06" cy="203.66" r="1.86"/><circle class="cls-6" cx="725.01" cy="221.51" r="1.86"/><circle class="cls-6" cx="684.62" cy="173.11" r="1.86"/><circle class="cls-6" cx="690.83" cy="214.44" r="1.86"/><circle class="cls-6" cx="641.03" cy="230.05" r="1.86"/><circle class="cls-6" cx="639.06" cy="119.3" r="1.86"/><circle class="cls-6" cx="712.25" cy="153.9" r="1.86"/><circle class="cls-6" cx="655.84" cy="169.95" r="1.86"/><circle class="cls-6" cx="629.05" cy="190.09" r="1.86"/><path class="cls-5" d="M688.21,321.34a5.54,5.54,0,0,0-1.92,6.08c1.46,4.74,9.59.23,11.3,6.89s-6.06,8.11-4.72,13.07c.91,3.38,4.42,4.26,5.73,4.52"/><path class="cls-5" d="M725.71,291.46a5.55,5.55,0,0,0-6.33.81c-3.68,3.32,3.83,8.8-1.5,13.16s-9.9-2.1-13.84,1.2c-2.68,2.25-2,5.81-1.7,7.1"/><path class="cls-5" d="M709.3,333.13s6.65.82,8.4-5.19c.85-2.91.18-6.23-3.32-9.37"/><path class="cls-5" d="M688.09,268.62s-4.68-4.81-9.81-1.22c-2.48,1.74-4,4.75-3.27,9.39"/><path class="cls-5" d="M695.73,322.68s5-3.35,9.91-.47"/><path class="cls-5" d="M670.52,325.29s5-3.35,9.91-.46"/><path class="cls-5" d="M712.64,300.06s-4.58-4-3.09-9.43"/><path class="cls-5" d="M657.63,335.6s-4.58-4-3.09-9.43"/><path class="cls-5" d="M706.83,272.37s-4.57-4-3.09-9.43"/><path class="cls-5" d="M733.82,330s-3.1-5.21,0-9.93"/><path class="cls-5" d="M681.56,300.37s1.69-5.82,7.27-6.77"/><path class="cls-5" d="M688.36,336.81s-8.73,9.93-18.33,3.13"/><path class="cls-5" d="M654.17,287.51a5.55,5.55,0,0,0-6.38.15c-4,2.93,2.9,9.15-2.85,12.93s-9.63-3.11-13.89-.23c-2.9,2-2.6,5.56-2.42,6.89"/><path class="cls-5" d="M694.59,313.3a5.53,5.53,0,0,0-2.82-5.72c-4.33-2.41-7.08,6.47-12.93,2.84s-1.22-10.05-5.63-12.7c-3-1.81-6.14,0-7.26.7"/><path class="cls-5" d="M649.85,311.28s1.38,6.57,7.63,6.27c3-.15,6-1.85,7.8-6.18"/><path class="cls-5" d="M655.34,295.06s4.81,3.69,3.66,9.23"/><path class="cls-5" d="M639.58,292.67s-12.22-5-8.89-16.33"/><path class="cls-5" d="M683.52,258.35a5.52,5.52,0,0,0,3.08-5.58c-.51-4.93-9.36-2.11-9.73-9s7.54-6.75,7.2-11.88c-.23-3.49-3.49-5-4.73-5.56"/><path class="cls-5" d="M640.88,280.27a5.52,5.52,0,0,0,6.36.45c4.26-2.53-2-9.38,4.06-12.6s9.3,4,13.81,1.54c3.06-1.67,3.11-5.29,3-6.63"/><path class="cls-5" d="M671,285.79a5.53,5.53,0,0,0,5.4,3.38c5-.24,2.62-9.23,9.5-9.22s6.34,7.89,11.48,7.83c3.49,0,5.23-3.22,5.81-4.42"/><path class="cls-5" d="M657.24,362.27a5.53,5.53,0,0,0,6.22,1.37c4.59-1.89-.63-9.58,5.85-11.88s8.62,5.31,13.44,3.52c3.28-1.21,3.85-4.78,4-6.11"/><path class="cls-5" d="M665.17,242.64s-6.37-2.11-9.26,3.44c-1.41,2.69-1.41,6.08,1.41,9.85"/><path class="cls-5" d="M676.41,255.57s-5.61,2.29-9.81-1.5"/><path class="cls-5" d="M686.41,243.16s10.52-8,18.59.54"/><path class="cls-5" d="M664.91,398s8.33-4.94,13.48,2"/><circle class="cls-6" cx="662.16" cy="283.83" r="1.86"/><circle class="cls-6" cx="676.92" cy="317.66" r="1.86"/><circle class="cls-6" cx="641.98" cy="309.37" r="1.86"/><circle class="cls-6" cx="697.36" cy="249.91" r="1.86"/><circle class="cls-6" cx="678.49" cy="333.18" r="1.86"/><circle class="cls-6" cx="673.33" cy="359.44" r="1.86"/><circle class="cls-6" cx="694.32" cy="300" r="1.86"/><circle class="cls-6" cx="661.95" cy="326.44" r="1.86"/><circle class="cls-6" cx="623.11" cy="291.59" r="1.86"/><circle class="cls-6" cx="724.95" cy="313.96" r="1.86"/><circle class="cls-6" cx="714.37" cy="356.02" r="1.86"/><circle class="cls-6" cx="682.35" cy="273.64" r="1.86"/><circle class="cls-6" cx="651.35" cy="260.89" r="1.86"/><path class="cls-5" d="M777.66,297.18a5.54,5.54,0,0,0-1.92,6.08c1.47,4.73,9.59.23,11.3,6.89s-6.06,8.1-4.72,13.07c.91,3.37,4.42,4.26,5.73,4.52"/><path class="cls-5" d="M815.16,267.3a5.51,5.51,0,0,0-6.32.81c-3.69,3.32,3.82,8.8-1.51,13.15s-9.9-2.09-13.84,1.21c-2.68,2.24-2,5.8-1.69,7.1"/><path class="cls-5" d="M798.75,309s6.66.82,8.4-5.19c.85-2.92.18-6.24-3.32-9.38"/><path class="cls-5" d="M777.54,244.45s-4.68-4.81-9.8-1.21c-2.49,1.74-4,4.75-3.28,9.39"/><path class="cls-5" d="M785.18,298.51s5.05-3.35,9.91-.46"/><path class="cls-5" d="M760,301.13s5-3.35,9.91-.47"/><path class="cls-5" d="M802.09,275.89s-4.57-4-3.09-9.43"/><path class="cls-5" d="M747.08,311.43s-4.57-4-3.09-9.43"/><path class="cls-5" d="M823.27,305.79s-3.1-5.2,0-9.93"/><path class="cls-5" d="M771,276.2s1.68-5.82,7.26-6.77"/><path class="cls-5" d="M777.82,312.65s-8.74,9.92-18.33,3.12"/><path class="cls-5" d="M743.62,263.35a5.5,5.5,0,0,0-6.37.15c-4,2.92,2.89,9.15-2.86,12.93s-9.63-3.11-13.89-.24c-2.9,2-2.6,5.57-2.42,6.89"/><path class="cls-5" d="M784,289.13a5.52,5.52,0,0,0-2.81-5.72c-4.34-2.4-7.09,6.48-12.93,2.85s-1.23-10.05-5.63-12.71c-3-1.8-6.14,0-7.27.7"/><path class="cls-5" d="M739.3,287.12s1.38,6.56,7.64,6.26c3-.14,5.95-1.85,7.79-6.18"/><path class="cls-5" d="M744.8,270.89s4.8,3.69,3.65,9.23"/><path class="cls-5" d="M729,268.51s-12.22-5.05-8.9-16.33"/><path class="cls-5" d="M773,234.19a5.51,5.51,0,0,0,3.08-5.58c-.5-4.94-9.36-2.12-9.72-9s7.54-6.75,7.2-11.88c-.23-3.49-3.5-5.05-4.73-5.56"/><path class="cls-5" d="M730.33,256.11a5.54,5.54,0,0,0,6.36.45c4.26-2.53-2-9.38,4.06-12.6s9.3,4,13.81,1.54c3.07-1.68,3.11-5.3,3.06-6.63"/><path class="cls-5" d="M760.4,261.63a5.53,5.53,0,0,0,5.41,3.37c5-.23,2.61-9.23,9.49-9.22s6.34,7.89,11.48,7.83c3.49,0,5.23-3.21,5.81-4.42"/><path class="cls-5" d="M746.69,338.11a5.54,5.54,0,0,0,6.23,1.36c4.58-1.89-.64-9.57,5.84-11.88s8.62,5.31,13.44,3.53c3.28-1.22,3.85-4.79,4-6.12"/><path class="cls-5" d="M754.62,218.48s-6.37-2.11-9.26,3.44c-1.41,2.69-1.41,6.07,1.41,9.84"/><path class="cls-5" d="M765.86,231.4s-5.6,2.29-9.81-1.5"/><path class="cls-5" d="M775.86,219s10.52-8,18.59.55"/><path class="cls-5" d="M787.43,253.58s-4.67-12.37,5.84-17.66"/><circle class="cls-6" cx="751.62" cy="259.66" r="1.86"/><circle class="cls-6" cx="766.37" cy="293.5" r="1.86"/><circle class="cls-6" cx="731.44" cy="285.2" r="1.86"/><circle class="cls-6" cx="786.81" cy="225.75" r="1.86"/><circle class="cls-6" cx="767.94" cy="309.01" r="1.86"/><circle class="cls-6" cx="762.78" cy="335.27" r="1.86"/><circle class="cls-6" cx="783.78" cy="275.83" r="1.86"/><circle class="cls-6" cx="751.41" cy="302.27" r="1.86"/><circle class="cls-6" cx="712.56" cy="267.42" r="1.86"/><circle class="cls-6" cx="814.4" cy="289.79" r="1.86"/><circle class="cls-6" cx="771.8" cy="249.48" r="1.86"/><circle class="cls-6" cx="740.8" cy="236.73" r="1.86"/><path class="cls-5" d="M465,185.43a5.54,5.54,0,0,0-6.22-1.42c-4.6,1.85.56,9.58-5.94,11.83s-8.58-5.37-13.41-3.62c-3.29,1.18-3.88,4.75-4,6.08"/><path class="cls-5" d="M497.86,220.33a5.53,5.53,0,0,0-1.33-6.23c-3.62-3.4-8.46,4.53-13.24-.42s1.28-10-2.34-13.69c-2.46-2.49-5.95-1.53-7.22-1.11"/><path class="cls-5" d="M455,207.41s-.27,6.7,5.87,8c3,.6,6.23-.33,9.07-4.09"/><path class="cls-5" d="M517.52,181s4.41-5.06.4-9.87c-1.94-2.33-5.06-3.64-9.62-2.49"/><path class="cls-5" d="M464.28,193s3.75,4.75,1.27,9.84"/><path class="cls-5" d="M459.59,168.12s3.76,4.75,1.28,9.84"/><path class="cls-5" d="M488.21,208s3.58-4.89,9.15-3.86"/><path class="cls-5" d="M448.26,156.13s3.58-4.89,9.14-3.86"/><path class="cls-5" d="M460.16,231.59s4.93-3.52,9.89-.8"/><path class="cls-5" d="M485.34,177.07s5.94,1.2,7.35,6.68"/><path class="cls-5" d="M449.58,186.85S439,179,445,168.84"/><path class="cls-5" d="M495.9,148.71a5.53,5.53,0,0,0-.68-6.34c-3.24-3.75-8.88,3.64-13.12-1.78s2.3-9.85-.91-13.86c-2.19-2.73-5.76-2.13-7.07-1.85"/><path class="cls-5" d="M473.53,191.12a5.52,5.52,0,0,0,5.47-3.27c2-4.53-7-6.53-3.9-12.66s9.91-2.05,12.19-6.65c1.56-3.14-.48-6.13-1.29-7.19"/><path class="cls-5" d="M471.85,146.37s-6.43,1.91-5.62,8.12c.4,3,2.34,5.79,6.81,7.26"/><path class="cls-5" d="M488.47,150.51s-3.28,5.09-8.89,4.4"/><path class="cls-5" d="M489.55,134.6s4-12.59,15.54-10.21"/><path class="cls-5" d="M527.37,175.56a5.54,5.54,0,0,0,5.82,2.61c4.87-.91,1.33-9.5,8.15-10.43s7.35,6.95,12.44,6.19c3.45-.51,4.74-3.89,5.15-5.17"/><path class="cls-5" d="M502,134.87a5.55,5.55,0,0,0,.08,6.38c2.88,4,9.18-2.79,12.89,3s-3.22,9.6-.39,13.89c1.92,2.92,5.53,2.67,6.85,2.5"/><path class="cls-5" d="M499,165.29a5.55,5.55,0,0,0-2.92,5.67c.65,4.92,9.42,1.85,10,8.7s-7.35,7-6.86,12.08c.32,3.48,3.63,4.95,4.88,5.43"/><path class="cls-5" d="M421.64,157.93a5.53,5.53,0,0,0-.84,6.32c2.26,4.41,9.49-1.42,12.32,4.85s-4.58,9-2.41,13.68c1.48,3.17,5.09,3.44,6.42,3.47"/><path class="cls-5" d="M541.52,156s1.58-6.51-4.19-8.94c-2.8-1.18-6.17-.9-9.7,2.22"/><path class="cls-5" d="M529.57,168.25s-2.75-5.4.68-9.9"/><path class="cls-5" d="M542.76,177.19s8.85,9.82,1,18.57"/><path class="cls-5" d="M509.24,191.57s11.94-5.68,18.08,4.36"/><circle class="cls-6" cx="500.23" cy="156.38" r="1.86"/><circle class="cls-6" cx="467.72" cy="173.87" r="1.86"/><circle class="cls-6" cx="473.11" cy="138.37" r="1.86"/><circle class="cls-6" cx="536.93" cy="188.66" r="1.86"/><circle class="cls-6" cx="452.39" cy="176.71" r="1.86"/><circle class="cls-6" cx="425.79" cy="173.74" r="1.86"/><circle class="cls-6" cx="486.76" cy="189.76" r="1.86"/><circle class="cls-6" cx="457.74" cy="159.68" r="1.86"/><circle class="cls-6" cx="489.28" cy="118.1" r="1.86"/><circle class="cls-6" cx="475.37" cy="221.43" r="1.86"/><circle class="cls-6" cx="512.04" cy="175.66" r="1.86"/><circle class="cls-6" cx="522.19" cy="143.71" r="1.86"/><path class="cls-5" d="M421.14,101.81a5.55,5.55,0,0,0-6.22-1.42c-4.6,1.86.56,9.58-5.94,11.84s-8.57-5.38-13.41-3.63c-3.29,1.19-3.88,4.75-4,6.08"/><path class="cls-5" d="M542.48,204.1a5.56,5.56,0,0,0-5.53-3.19c-4.94.42-2.29,9.32-9.16,9.55S521.18,202.79,516,203c-3.49.17-5.11,3.4-5.65,4.62"/><path class="cls-5" d="M454,136.72a5.55,5.55,0,0,0-1.33-6.24c-3.62-3.39-8.46,4.54-13.23-.41s1.27-10-2.35-13.7c-2.46-2.48-6-1.52-7.21-1.1"/><path class="cls-5" d="M411.12,123.79s-.27,6.71,5.87,8c3,.6,6.23-.33,9.07-4.08"/><path class="cls-5" d="M473.68,97.34s4.4-5.06.4-9.87c-1.94-2.33-5.07-3.64-9.63-2.49"/><path class="cls-5" d="M420.43,109.41s3.75,4.76,1.28,9.84"/><path class="cls-5" d="M410.83,152.09s4.38-4.19,9.68-2.2"/><path class="cls-5" d="M444.36,124.4s3.58-4.89,9.15-3.86"/><path class="cls-5" d="M522.09,99.53s-2.93-5.3.35-9.92"/><path class="cls-5" d="M541.48,125s4.93-3.52,9.9-.8"/><path class="cls-5" d="M441.49,93.46s5.94,1.19,7.35,6.68"/><path class="cls-5" d="M463.29,138.88s-.63-6,4.18-9"/><path class="cls-5" d="M533.34,131.93s-1.92-13.08,9.48-16"/><path class="cls-5" d="M452.05,65.1a5.53,5.53,0,0,0-.68-6.34c-3.24-3.75-8.88,3.63-13.12-1.79s2.31-9.85-.91-13.86c-2.19-2.72-5.76-2.13-7.07-1.84"/><path class="cls-5" d="M429.68,107.51a5.55,5.55,0,0,0,5.47-3.28c2-4.52-7-6.53-3.9-12.65s9.91-2.06,12.2-6.66c1.55-3.13-.49-6.12-1.3-7.19"/><path class="cls-5" d="M509.71,109a5.55,5.55,0,0,0-1.56,6.18c1.75,4.64,9.59-.34,11.7,6.21s-5.57,8.45-3.94,13.33c1.11,3.31,4.67,4,6,4.17"/><path class="cls-5" d="M428,62.75s-6.42,1.92-5.61,8.12c.39,3,2.33,5.79,6.8,7.26"/><path class="cls-5" d="M444.83,146.11s-6.43,1.92-5.62,8.13c.4,3,2.34,5.78,6.81,7.25"/><path class="cls-5" d="M529.13,219.29s-6.43,1.92-5.62,8.13c.39,3,2.33,5.78,6.8,7.25"/><path class="cls-5" d="M544.78,330.17s-1.47-6.54-7.72-6.16c-3,.19-5.93,1.94-7.7,6.29"/><path class="cls-5" d="M444.63,66.89s-3.29,5.09-8.9,4.4"/><path class="cls-5" d="M445.7,51s4-12.6,15.54-10.22"/><path class="cls-5" d="M483.53,91.94a5.51,5.51,0,0,0,5.81,2.61c4.88-.91,1.34-9.5,8.15-10.43s7.35,7,12.44,6.2c3.45-.52,4.74-3.9,5.15-5.17"/><path class="cls-5" d="M458.16,51.25a5.55,5.55,0,0,0,.08,6.38c2.88,4,9.19-2.79,12.89,3s-3.22,9.59-.39,13.89c1.92,2.91,5.53,2.66,6.86,2.5"/><path class="cls-5" d="M455.15,81.68a5.54,5.54,0,0,0-2.93,5.66c.65,4.92,9.42,1.85,10,8.71s-7.35,7-6.86,12.08c.33,3.48,3.63,5,4.88,5.42"/><path class="cls-5" d="M377.8,74.31a5.53,5.53,0,0,0-.85,6.32c2.26,4.42,9.49-1.42,12.32,4.85s-4.58,9-2.41,13.68c1.48,3.17,5.09,3.44,6.43,3.47"/><path class="cls-5" d="M497.67,72.36s1.58-6.52-4.19-9c-2.8-1.17-6.17-.9-9.69,2.22"/><path class="cls-5" d="M485.72,84.63s-2.75-5.4.68-9.9"/><path class="cls-5" d="M498.91,93.57s8.85,9.82,1,18.57"/><path class="cls-5" d="M465.39,108s11.94-5.68,18.08,4.36"/><circle class="cls-6" cx="456.38" cy="72.76" r="1.86"/><circle class="cls-6" cx="423.87" cy="90.25" r="1.86"/><circle class="cls-6" cx="429.27" cy="54.75" r="1.86"/><circle class="cls-6" cx="493.08" cy="105.04" r="1.86"/><circle class="cls-6" cx="519.82" cy="108.4" r="1.86"/><circle class="cls-6" cx="510.38" cy="75.95" r="1.86"/><circle class="cls-6" cx="543.9" cy="132.33" r="1.86"/><circle class="cls-6" cx="413.89" cy="76.06" r="1.86"/><circle class="cls-6" cx="431.53" cy="137.82" r="1.86"/><circle class="cls-6" cx="468.19" cy="92.04" r="1.86"/><circle class="cls-6" cx="478.34" cy="60.09" r="1.86"/><path class="cls-5" d="M606.34,452.33a5.53,5.53,0,0,0-6.22-1.41c-4.6,1.85.56,9.58-5.94,11.83s-8.57-5.38-13.41-3.63c-3.29,1.19-3.88,4.76-4,6.08"/><path class="cls-5" d="M639.21,487.24a5.55,5.55,0,0,0-1.33-6.24c-3.62-3.39-8.46,4.54-13.23-.41s1.27-10-2.35-13.7c-2.46-2.48-5.95-1.52-7.21-1.1"/><path class="cls-5" d="M596.32,474.32s-.27,6.7,5.87,7.94c3,.61,6.23-.33,9.07-4.08"/><path class="cls-5" d="M658.88,447.86s4.4-5.05.4-9.87c-1.94-2.33-5.07-3.64-9.63-2.49"/><path class="cls-5" d="M605.63,459.93s3.75,4.76,1.28,9.85"/><path class="cls-5" d="M600.94,435s3.76,4.76,1.28,9.85"/><path class="cls-5" d="M629.56,474.92s3.58-4.88,9.15-3.86"/><path class="cls-5" d="M641.48,239.16s6.06-.17,8.66,4.85"/><path class="cls-5" d="M589.61,423s3.58-4.89,9.15-3.86"/><path class="cls-5" d="M602.24,297.82s6,1,7.59,6.4"/><path class="cls-5" d="M626.69,444s5.94,1.2,7.35,6.68"/><path class="cls-5" d="M590.93,453.76s-10.61-7.89-4.62-18"/><path class="cls-5" d="M637.25,415.62a5.53,5.53,0,0,0-.68-6.34c-3.24-3.75-8.88,3.64-13.12-1.78s2.31-9.86-.91-13.87c-2.19-2.72-5.76-2.13-7.07-1.84"/><path class="cls-5" d="M614.88,458a5.55,5.55,0,0,0,5.47-3.28c2-4.52-7-6.53-3.9-12.65s9.91-2.05,12.2-6.66c1.55-3.13-.49-6.12-1.3-7.18"/><path class="cls-5" d="M613.2,413.27s-6.42,1.92-5.61,8.13c.39,3,2.33,5.78,6.8,7.25"/><path class="cls-5" d="M629.83,417.41s-3.29,5.09-8.9,4.4"/><path class="cls-5" d="M630.9,401.51s4-12.6,15.54-10.21"/><path class="cls-5" d="M668.73,442.47a5.54,5.54,0,0,0,5.81,2.61c4.88-.92,1.34-9.51,8.15-10.44s7.35,7,12.44,6.2c3.45-.52,4.74-3.9,5.15-5.17"/><path class="cls-5" d="M643.36,401.77a5.55,5.55,0,0,0,.08,6.38c2.88,4,9.19-2.78,12.89,3s-3.22,9.59-.39,13.89c1.92,2.92,5.53,2.66,6.86,2.5"/><path class="cls-5" d="M640.35,432.2a5.55,5.55,0,0,0-2.93,5.67c.65,4.91,9.42,1.84,10,8.7s-7.35,7-6.86,12.08c.33,3.48,3.63,5,4.88,5.43"/><path class="cls-5" d="M563,424.84a5.52,5.52,0,0,0-.85,6.31c2.26,4.42,9.49-1.42,12.32,4.85s-4.58,9-2.41,13.69c1.48,3.16,5.09,3.44,6.43,3.47"/><path class="cls-5" d="M682.87,422.88s1.58-6.52-4.19-8.95c-2.8-1.17-6.17-.89-9.69,2.22"/><path class="cls-5" d="M670.92,435.15s-2.75-5.4.68-9.9"/><path class="cls-5" d="M684.11,444.1s8.85,9.82,1,18.56"/><path class="cls-5" d="M650.59,458.48s11.94-5.68,18.08,4.35"/><circle class="cls-6" cx="641.58" cy="423.28" r="1.86"/><circle class="cls-6" cx="609.07" cy="440.77" r="1.86"/><circle class="cls-6" cx="614.46" cy="405.28" r="1.86"/><circle class="cls-6" cx="678.28" cy="455.56" r="1.86"/><circle class="cls-6" cx="593.74" cy="443.62" r="1.86"/><circle class="cls-6" cx="567.15" cy="440.64" r="1.86"/><circle class="cls-6" cx="628.11" cy="456.66" r="1.86"/><circle class="cls-6" cx="599.09" cy="426.58" r="1.86"/><circle class="cls-6" cx="630.63" cy="385" r="1.86"/><circle class="cls-6" cx="616.72" cy="488.34" r="1.86"/><path class="cls-5" d="M511.61,282.12c-1.54,1.66-2,4.71-.45,6.42,3.19,3.57,9.37-.29,12.3,3.83,2.81,3.93-3.78,9.5-1.34,14,1.67,3.08,5.29,3.13,6.62,3.09"/><path class="cls-5" d="M567.6,288.21c-1.38-1.79-4.31-2.74-6.25-1.53-4.06,2.54-1.3,9.29-5.85,11.48-4.35,2.1-8.73-5.34-13.6-3.69-3.31,1.12-4,4.68-4.15,6"/><path class="cls-5" d="M572.47,279.44a3.94,3.94,0,0,0-.61-4.2c-2.21-2.55-5.09-.39-7.24-3.27s.81-6-1.13-9.16a5,5,0,0,0-4-2.43"/><path class="cls-5" d="M539,247.39c-4.14,2.73,2.45,9.28-3.47,12.78s-9.47-3.57-13.86-.89c-3,1.81-2.87,5.43-2.75,6.76"/><path class="cls-5" d="M550.52,350.89c1.86-4.59-7.28-6.25-4.39-12.49s9.83-2.43,11.93-7.12c1.43-3.19-.72-6.1-1.57-7.13"/><path class="cls-5" d="M534.84,288.75s6.67-.73,7-7c.16-3-1.25-6.11-5.39-8.36"/><path class="cls-5" d="M499.37,230.83s-5.66-3.6-9.82,1.07c-2,2.27-2.84,5.56-1,9.9"/><path class="cls-5" d="M519.23,281.69s4.14-4.42,9.54-2.73"/><path class="cls-5" d="M546.62,285.32s3.12-5.2,8.76-4.68"/><path class="cls-5" d="M531.19,254.07s-3.92-4.61-1.64-9.79"/><path class="cls-5" d="M500.32,263.23s.3-6.05,5.51-8.25"/><path class="cls-5" d="M548.38,272.26s-3.44-5.85.09-11.12"/><path class="cls-5" d="M539.32,312.75s.3-6.05,5.52-8.25"/><path class="cls-5" d="M515.31,297.14s-6.22,11.67-17.12,7.25"/><path class="cls-5" d="M563.68,305.94s-6.21,11.66-17.12,7.25"/><path class="cls-5" d="M513.42,273.59a5.53,5.53,0,0,0-4.06-4.92c-4.77-1.34-5.41,7.93-11.93,5.74s-3.5-9.5-8.39-11.07c-3.33-1.07-6,1.39-6.92,2.35"/><path class="cls-5" d="M486.64,251.49a5.52,5.52,0,0,0,6,2c4.76-1.37.42-9.58,7.12-11.16s8,6.23,13,5c3.39-.84,4.35-4.33,4.63-5.64"/><path class="cls-5" d="M490.87,329.07a5.52,5.52,0,0,0,6.37-.1c4-2.89-2.82-9.17,3-12.9s9.61,3.18,13.89.34c2.91-1.94,2.65-5.54,2.48-6.87"/><path class="cls-5" d="M511.1,237.44s-7.4-11,1.62-18.52"/><circle class="cls-6" cx="511.42" cy="257.5" r="1.86"/><circle class="cls-6" cx="552.22" cy="290.37" r="1.86"/><circle class="cls-6" cx="554.63" cy="267" r="1.86"/><circle class="cls-6" cx="550.33" cy="326.55" r="1.86"/><circle class="cls-6" cx="653.39" cy="442.56" r="1.86"/><circle class="cls-6" cx="663.54" cy="410.62" r="1.86"/><path class="cls-5" d="M562.49,368.71a5.53,5.53,0,0,0-6.22-1.41c-4.6,1.85.57,9.58-5.94,11.83s-8.57-5.37-13.41-3.63c-3.28,1.19-3.88,4.76-4,6.09"/><path class="cls-5" d="M595.36,403.62a5.55,5.55,0,0,0-1.33-6.24c-3.61-3.39-8.46,4.54-13.23-.41s1.27-10-2.35-13.69c-2.46-2.49-5.94-1.53-7.21-1.11"/><path class="cls-5" d="M552.48,390.7s-.27,6.7,5.86,7.95c3,.6,6.23-.34,9.07-4.09"/><path class="cls-5" d="M615,364.25s4.4-5.06.4-9.87c-1.94-2.33-5.07-3.64-9.63-2.5"/><path class="cls-5" d="M561.78,376.32s3.75,4.75,1.28,9.84"/><path class="cls-5" d="M552.19,419s4.37-4.19,9.67-2.21"/><path class="cls-5" d="M585.71,391.31s3.58-4.89,9.15-3.86"/><path class="cls-5" d="M582.85,360.36s5.94,1.2,7.34,6.68"/><path class="cls-5" d="M604.65,405.79s-.64-6,4.18-9"/><path class="cls-5" d="M593.4,332a5.53,5.53,0,0,0-.68-6.34c-3.24-3.75-8.88,3.64-13.12-1.78s2.31-9.86-.91-13.86c-2.19-2.73-5.76-2.14-7.06-1.85"/><path class="cls-5" d="M571,374.41a5.53,5.53,0,0,0,5.47-3.28c2-4.52-7-6.53-3.9-12.65s9.91-2.05,12.2-6.66c1.55-3.13-.49-6.12-1.3-7.18"/><path class="cls-5" d="M651.06,375.93a5.53,5.53,0,0,0-1.55,6.18c1.74,4.64,9.59-.34,11.69,6.21s-5.57,8.45-3.94,13.32c1.11,3.32,4.67,4,6,4.18"/><path class="cls-5" d="M617.61,287.52a5.54,5.54,0,0,0-3.69,5.2c0,5,9.07,3.15,8.66,10s-8.24,5.87-8.48,11c-.16,3.49,2.91,5.4,4.08,6.05"/><path class="cls-5" d="M569.35,329.65s-6.42,1.92-5.61,8.13c.39,3,2.33,5.79,6.8,7.26"/><path class="cls-5" d="M634.26,310.62s-2.44,6.25,3,9.43c2.62,1.54,6,1.72,9.91-.9"/><path class="cls-5" d="M586.18,413s-6.43,1.91-5.62,8.12c.4,3,2.34,5.79,6.81,7.26"/><path class="cls-5" d="M721.57,405.42a5.53,5.53,0,0,0-6.22-1.41c-4.6,1.85.56,9.58-5.94,11.83s-8.58-5.37-13.41-3.63c-3.29,1.19-3.88,4.76-4,6.09"/><path class="cls-5" d="M754.44,440.33a5.55,5.55,0,0,0-1.33-6.24c-3.62-3.39-8.46,4.54-13.24-.41s1.28-10-2.34-13.69c-2.46-2.49-5.95-1.53-7.22-1.11"/><path class="cls-5" d="M711.55,427.41s-.27,6.7,5.87,7.95c3,.6,6.23-.34,9.07-4.09"/><path class="cls-5" d="M774.1,401s4.41-5.06.41-9.87c-2-2.33-5.07-3.64-9.63-2.5"/><path class="cls-5" d="M720.86,413s3.75,4.75,1.27,9.84"/><path class="cls-5" d="M716.17,388.12s3.76,4.75,1.28,9.84"/><path class="cls-5" d="M744.79,428s3.58-4.89,9.15-3.86"/><path class="cls-5" d="M704.84,376.12s3.58-4.88,9.14-3.86"/><path class="cls-5" d="M741.92,397.07s5.94,1.2,7.35,6.68"/><path class="cls-5" d="M706.16,406.85s-10.61-7.88-4.62-18"/><path class="cls-5" d="M752.48,368.71a5.53,5.53,0,0,0-.68-6.34c-3.24-3.75-8.88,3.64-13.12-1.78s2.31-9.86-.91-13.86c-2.19-2.73-5.76-2.14-7.07-1.85"/><path class="cls-5" d="M730.11,411.12a5.55,5.55,0,0,0,5.47-3.28c2-4.52-7-6.53-3.9-12.65s9.91-2.05,12.19-6.66c1.56-3.13-.48-6.12-1.29-7.18"/><path class="cls-5" d="M728.43,366.36s-6.43,1.92-5.61,8.13c.39,3,2.33,5.79,6.8,7.26"/><path class="cls-5" d="M745.05,370.5s-3.28,5.1-8.89,4.4"/><path class="cls-5" d="M784,395.56a5.54,5.54,0,0,0,5.82,2.61c4.88-.91,1.33-9.5,8.15-10.43s7.35,6.95,12.44,6.19c3.45-.52,4.74-3.9,5.15-5.17"/><path class="cls-5" d="M758.59,354.87a5.53,5.53,0,0,0,.08,6.37c2.88,4,9.18-2.78,12.89,3s-3.22,9.6-.39,13.89c1.92,2.92,5.53,2.67,6.86,2.5"/><path class="cls-5" d="M755.57,385.29a5.55,5.55,0,0,0-2.92,5.67c.65,4.91,9.42,1.85,10,8.7s-7.35,7-6.86,12.08c.33,3.48,3.63,4.95,4.88,5.43"/><path class="cls-5" d="M678.22,377.93a5.55,5.55,0,0,0-.84,6.32c2.26,4.41,9.49-1.43,12.32,4.85s-4.58,9-2.41,13.68c1.48,3.17,5.09,3.44,6.42,3.47"/><path class="cls-5" d="M703.49,342.46c-.08,1.67,1.54,3.66,3.55,4.69,4.41,2.27,5.48-4.35,11.49-1s2.8,7.89,7.31,10.36a7,7,0,0,0,6.61.13"/><path class="cls-5" d="M798.1,376s1.58-6.52-4.19-8.94c-2.8-1.18-6.17-.9-9.7,2.22"/><path class="cls-5" d="M786.15,388.25s-2.75-5.41.68-9.91"/><path class="cls-5" d="M799.34,397.19s8.85,9.82,1,18.57"/><path class="cls-5" d="M765.82,411.57s11.94-5.68,18.08,4.36"/><circle class="cls-6" cx="756.81" cy="376.38" r="1.86"/><circle class="cls-6" cx="724.3" cy="393.87" r="1.86"/><circle class="cls-6" cx="793.51" cy="408.65" r="1.86"/><circle class="cls-6" cx="708.97" cy="396.71" r="1.86"/><circle class="cls-6" cx="682.37" cy="393.73" r="1.86"/><circle class="cls-6" cx="743.34" cy="409.76" r="1.86"/><circle class="cls-6" cx="714.32" cy="379.68" r="1.86"/><circle class="cls-6" cx="731.95" cy="441.43" r="1.86"/><circle class="cls-6" cx="768.62" cy="395.65" r="1.86"/><path class="cls-5" d="M667.41,372.09s4.38-4.19,9.68-2.21"/><path class="cls-5" d="M701.41,366.11s-6.43,1.92-5.62,8.12c.4,3,2.34,5.79,6.81,7.26"/><path class="cls-5" d="M586,333.79s-3.28,5.1-8.9,4.4"/><path class="cls-5" d="M587.06,317.89s4-12.59,15.54-10.21"/><path class="cls-5" d="M624.88,358.85a5.51,5.51,0,0,0,5.81,2.61c4.88-.91,1.34-9.5,8.15-10.43s7.36,7,12.44,6.19c3.46-.52,4.74-3.9,5.15-5.17"/><path class="cls-5" d="M599.52,318.16a5.52,5.52,0,0,0,.07,6.37c2.88,4,9.19-2.78,12.9,3s-3.23,9.6-.4,13.89c1.92,2.92,5.53,2.67,6.86,2.5"/><path class="cls-5" d="M596.5,348.58a5.53,5.53,0,0,0-2.92,5.67c.64,4.91,9.41,1.85,10,8.7s-7.34,7-6.86,12.08c.33,3.48,3.64,5,4.88,5.43"/><path class="cls-5" d="M519.15,341.22a5.53,5.53,0,0,0-.85,6.32c2.26,4.41,9.49-1.43,12.32,4.85s-4.58,9-2.4,13.68c1.47,3.17,5.08,3.44,6.42,3.47"/><path class="cls-5" d="M639,339.26s1.58-6.52-4.19-8.94c-2.79-1.18-6.17-.9-9.69,2.22"/><path class="cls-5" d="M627.07,351.54s-2.75-5.41.68-9.91"/><path class="cls-5" d="M640.26,360.48s8.86,9.82,1,18.57"/><path class="cls-5" d="M606.75,374.86s11.94-5.68,18.07,4.36"/><circle class="cls-6" cx="597.73" cy="339.67" r="1.86"/><circle class="cls-6" cx="565.22" cy="357.16" r="1.86"/><circle class="cls-6" cx="570.62" cy="321.66" r="1.86"/><circle class="cls-6" cx="634.43" cy="371.94" r="1.86"/><circle class="cls-6" cx="651.73" cy="342.86" r="1.86"/><circle class="cls-6" cx="555.25" cy="342.97" r="1.86"/><circle class="cls-6" cx="572.88" cy="404.72" r="1.86"/><circle class="cls-6" cx="609.55" cy="358.94" r="1.86"/><circle class="cls-6" cx="619.7" cy="327" r="1.86"/><path class="cls-5" d="M596.76,256.14a5.54,5.54,0,0,0-1.92,6.08c1.47,4.74,9.59.23,11.3,6.89s-6.06,8.11-4.72,13.07c.91,3.37,4.42,4.26,5.73,4.52"/><path class="cls-5" d="M634.26,226.26a5.51,5.51,0,0,0-6.32.81c-3.69,3.32,3.82,8.8-1.51,13.15s-9.9-2.09-13.84,1.21c-2.68,2.25-2,5.8-1.69,7.1"/><path class="cls-5" d="M617.85,267.93s6.66.82,8.4-5.19c.85-2.91.18-6.24-3.32-9.37"/><path class="cls-5" d="M596.64,203.41s-4.68-4.8-9.8-1.21c-2.49,1.74-4.05,4.75-3.28,9.39"/><path class="cls-5" d="M604.28,257.47s5.05-3.35,9.92-.46"/><path class="cls-5" d="M579.07,260.09s5-3.35,9.91-.46"/><path class="cls-5" d="M621.19,234.86s-4.57-4-3.09-9.44"/><path class="cls-5" d="M642.37,264.75s-3.1-5.2,0-9.92"/><path class="cls-5" d="M590.12,235.16s1.68-5.82,7.26-6.76"/><path class="cls-5" d="M596.92,271.61s-8.74,9.93-18.33,3.12"/><path class="cls-5" d="M562.72,222.31a5.54,5.54,0,0,0-6.37.15c-4,2.92,2.89,9.15-2.86,12.93s-9.63-3.11-13.89-.23c-2.9,2-2.6,5.56-2.42,6.88"/><path class="cls-5" d="M603.15,248.1a5.54,5.54,0,0,0-2.82-5.72c-4.34-2.41-7.09,6.47-12.93,2.84s-1.23-10.05-5.63-12.7c-3-1.81-6.14,0-7.27.69"/><path class="cls-5" d="M558.4,246.08s1.38,6.56,7.64,6.27c3-.15,6-1.85,7.79-6.19"/><path class="cls-5" d="M563.9,229.85s4.8,3.69,3.65,9.23"/><path class="cls-5" d="M548.14,227.47s-12.22-5-8.9-16.33"/><path class="cls-5" d="M592.07,193.15a5.51,5.51,0,0,0,3.08-5.58c-.5-4.93-9.36-2.11-9.72-9s7.54-6.76,7.2-11.89c-.23-3.48-3.5-5-4.73-5.56"/><path class="cls-5" d="M549.43,215.07a5.52,5.52,0,0,0,6.36.45c4.26-2.53-2-9.38,4.06-12.6s9.3,4,13.81,1.54c3.07-1.68,3.11-5.29,3.06-6.63"/><path class="cls-5" d="M579.5,220.59a5.54,5.54,0,0,0,5.41,3.38c5-.24,2.61-9.24,9.49-9.23s6.34,7.9,11.48,7.84c3.49,0,5.23-3.22,5.81-4.42"/><path class="cls-5" d="M565.79,297.07a5.53,5.53,0,0,0,6.23,1.36c4.58-1.88-.64-9.57,5.84-11.87s8.62,5.3,13.44,3.52c3.28-1.21,3.85-4.79,4-6.12"/><path class="cls-5" d="M573.72,177.44s-6.37-2.11-9.26,3.44c-1.4,2.69-1.41,6.08,1.41,9.84"/><path class="cls-5" d="M585,190.36s-5.6,2.3-9.81-1.49"/><path class="cls-5" d="M595,178s10.52-8,18.59.55"/><path class="cls-5" d="M606.53,212.54s-4.67-12.37,5.84-17.66"/><circle class="cls-6" cx="570.72" cy="218.63" r="1.86"/><circle class="cls-6" cx="585.47" cy="252.46" r="1.86"/><circle class="cls-6" cx="550.54" cy="244.16" r="1.86"/><circle class="cls-6" cx="605.91" cy="184.71" r="1.86"/><circle class="cls-6" cx="587.04" cy="267.97" r="1.86"/><circle class="cls-6" cx="581.88" cy="294.23" r="1.86"/><circle class="cls-6" cx="602.88" cy="234.8" r="1.86"/><circle class="cls-6" cx="570.51" cy="261.24" r="1.86"/><circle class="cls-6" cx="531.66" cy="226.38" r="1.86"/><circle class="cls-6" cx="633.5" cy="248.75" r="1.86"/><circle class="cls-6" cx="590.9" cy="208.44" r="1.86"/><circle class="cls-6" cx="559.9" cy="195.69" r="1.86"/><path class="cls-5" d="M567.27,75.69a5.54,5.54,0,0,0,1.92-6.08c-1.47-4.73-9.6-.23-11.3-6.89s6.06-8.1,4.72-13.07c-.92-3.37-4.42-4.26-5.73-4.52"/><path class="cls-5" d="M529.77,105.57a5.52,5.52,0,0,0,6.32-.81c3.68-3.32-3.82-8.8,1.51-13.15s9.9,2.09,13.84-1.21c2.68-2.24,2-5.8,1.69-7.1"/><path class="cls-5" d="M546.18,63.9s-6.66-.82-8.4,5.19c-.85,2.92-.18,6.24,3.32,9.38"/><path class="cls-5" d="M567.39,128.42s4.68,4.81,9.8,1.21c2.49-1.74,4-4.75,3.28-9.39"/><path class="cls-5" d="M559.75,74.36s-5,3.35-9.92.46"/><path class="cls-5" d="M585,71.74s-5.05,3.35-9.92.47"/><path class="cls-5" d="M542.84,97s4.57,4,3.09,9.43"/><path class="cls-5" d="M597.84,61.44s4.58,4,3.1,9.43"/><path class="cls-5" d="M521.66,67.08s3.1,5.2,0,9.92"/><path class="cls-5" d="M573.91,96.67s-1.68,5.82-7.26,6.77"/><path class="cls-5" d="M567.11,60.22s8.73-9.92,18.33-3.12"/><path class="cls-5" d="M601.31,109.52a5.5,5.5,0,0,0,6.37-.15c4-2.92-2.89-9.15,2.86-12.93s9.63,3.11,13.89.23c2.89-2,2.6-5.56,2.42-6.88"/><path class="cls-5" d="M560.88,83.74a5.55,5.55,0,0,0,2.82,5.72c4.34,2.4,7.09-6.48,12.93-2.85s1.23,10,5.63,12.71c3,1.8,6.14,0,7.27-.7"/><path class="cls-5" d="M605.63,85.75s-1.39-6.56-7.64-6.26c-3,.14-6,1.85-7.79,6.18"/><path class="cls-5" d="M600.13,102s-4.8-3.69-3.65-9.23"/><path class="cls-5" d="M615.89,104.36s12.22,5,8.9,16.33"/><path class="cls-5" d="M572,138.68a5.53,5.53,0,0,0-3.09,5.58c.51,4.94,9.37,2.12,9.73,9s-7.54,6.75-7.2,11.88c.23,3.49,3.5,5.05,4.73,5.56"/><path class="cls-5" d="M614.6,116.76a5.54,5.54,0,0,0-6.36-.45c-4.26,2.53,2,9.38-4.06,12.6s-9.3-4-13.81-1.54c-3.07,1.68-3.11,5.3-3.06,6.63"/><path class="cls-5" d="M584.53,111.24a5.53,5.53,0,0,0-5.41-3.37c-5,.23-2.62,9.23-9.5,9.22s-6.33-7.89-11.47-7.83c-3.49,0-5.23,3.21-5.81,4.42"/><path class="cls-5" d="M598.24,34.76A5.54,5.54,0,0,0,592,33.4c-4.58,1.89.64,9.57-5.84,11.88s-8.62-5.31-13.44-3.53c-3.28,1.22-3.85,4.79-4,6.12"/><path class="cls-5" d="M590.31,154.39s6.37,2.11,9.26-3.44c1.4-2.69,1.41-6.07-1.41-9.84"/><path class="cls-5" d="M579.06,141.47s5.61-2.29,9.82,1.49"/><path class="cls-5" d="M569.06,153.88s-10.51,8-18.58-.55"/><path class="cls-5" d="M557.5,119.29s4.67,12.37-5.84,17.66"/><circle class="cls-6" cx="593.31" cy="113.21" r="1.86"/><circle class="cls-6" cx="578.56" cy="79.37" r="1.86"/><circle class="cls-6" cx="613.49" cy="87.67" r="1.86"/><circle class="cls-6" cx="558.12" cy="147.12" r="1.86"/><circle class="cls-6" cx="576.99" cy="63.86" r="1.86"/><circle class="cls-6" cx="582.15" cy="37.6" r="1.86"/><circle class="cls-6" cx="561.15" cy="97.04" r="1.86"/><circle class="cls-6" cx="593.52" cy="70.6" r="1.86"/><circle class="cls-6" cx="632.37" cy="105.45" r="1.86"/><circle class="cls-6" cx="530.53" cy="83.08" r="1.86"/><circle class="cls-6" cx="573.12" cy="123.39" r="1.86"/><circle class="cls-6" cx="604.12" cy="136.14" r="1.86"/><circle class="cls-6" cx="610.77" cy="166.48" r="1.86"/><circle class="cls-6" cx="615.92" cy="67.78" r="1.86"/><path class="cls-5" d="M662.39,50.64A5.55,5.55,0,0,0,664,44.45c-1.75-4.64-9.6.35-11.7-6.2s5.57-8.45,3.93-13.33c-1.11-3.31-4.67-4-6-4.17"/><path class="cls-5" d="M626.75,82.71A5.53,5.53,0,0,0,633,81.52c3.47-3.53-4.35-8.55.71-13.22s10,1.5,13.74-2c2.54-2.4,1.66-5.91,1.27-7.19"/><path class="cls-5" d="M640.64,40.13s-6.7-.42-8.08,5.69c-.67,3,.19,6.23,3.88,9.15"/><path class="cls-5" d="M665.67,103.26s5,4.52,9.86.63c2.37-1.89,3.75-5,2.71-9.57"/><path class="cls-5" d="M654.81,49.76s-4.84,3.64-9.87,1.05"/><path class="cls-5" d="M679.81,45.64s-4.83,3.64-9.86,1"/><path class="cls-5" d="M639.28,73.35s4.8,3.69,3.65,9.23"/><path class="cls-5" d="M692.06,34.58s4.81,3.69,3.65,9.23"/><path class="cls-5" d="M616.35,44.77s3.4,5,.57,9.91"/><path class="cls-5" d="M670.28,71.18s-1.33,5.91-6.84,7.19"/><path class="cls-5" d="M661.31,35.2s8.12-10.43,18.11-4.21"/><path class="cls-5" d="M698.4,82.37a5.52,5.52,0,0,0,6.35-.54c3.82-3.15-3.44-9,2.08-13.07s9.8,2.52,13.88-.6c2.77-2.13,2.26-5.71,2-7"/><path class="cls-5" d="M656.5,59.05a5.55,5.55,0,0,0,3.16,5.54c4.47,2.14,6.68-6.88,12.73-3.61s1.83,10,6.38,12.34c3.1,1.62,6.13-.35,7.22-1.13"/><path class="cls-5" d="M701.28,58.38s-1.77-6.47-8-5.8c-3,.33-5.84,2.21-7.41,6.64"/><path class="cls-5" d="M696.77,74.91s-5-3.4-4.2-9"/><path class="cls-5" d="M712.65,76.34s12.5,4.31,9.85,15.77"/><path class="cls-5" d="M670.85,113.23A5.56,5.56,0,0,0,668.1,119c.81,4.89,9.48,1.55,10.25,8.38s-7.12,7.2-6.47,12.29c.44,3.47,3.79,4.83,5,5.27"/><path class="cls-5" d="M712.1,88.8a5.53,5.53,0,0,0-6.38-.07c-4.1,2.78,2.58,9.24-3.3,12.82s-9.52-3.44-13.87-.71c-3,1.86-2.79,5.47-2.66,6.8"/><path class="cls-5" d="M681.75,85.09a5.54,5.54,0,0,0-5.6-3c-4.93.54-2.06,9.38-8.93,9.78s-6.79-7.5-11.92-7.13c-3.48.25-5,3.52-5.53,4.76"/><path class="cls-5" d="M690.86,7.93a5.52,5.52,0,0,0-6.3-1c-4.47,2.16,1.21,9.52-5.13,12.2s-8.92-4.78-13.62-2.71c-3.2,1.41-3.56,5-3.62,6.34"/><path class="cls-5" d="M690.11,127.81s6.48,1.73,9-4c1.24-2.77,1-6.15-2-9.74"/><path class="cls-5" d="M678.11,115.59s5.46-2.62,9.88.9"/><path class="cls-5" d="M668.87,128.58s-10,8.63-18.59.57"/><path class="cls-5" d="M655.25,94.74s5.41,12.07-4.77,18"/><circle class="cls-6" cx="690.64" cy="86.52" r="1.86"/><circle class="cls-6" cx="673.88" cy="53.63" r="1.86"/><circle class="cls-6" cx="709.25" cy="59.82" r="1.86"/><circle class="cls-6" cx="657.54" cy="122.49" r="1.86"/><circle class="cls-6" cx="671.39" cy="38.24" r="1.86"/><circle class="cls-6" cx="674.96" cy="11.72" r="1.86"/><circle class="cls-6" cx="657.57" cy="72.31" r="1.86"/><circle class="cls-6" cx="688.29" cy="43.98" r="1.86"/><circle class="cls-6" cx="729.16" cy="76.44" r="1.86"/><circle class="cls-6" cx="626.16" cy="60.21" r="1.86"/><circle class="cls-6" cx="671.1" cy="97.9" r="1.86"/><circle class="cls-6" cx="702.8" cy="108.77" r="1.86"/><path class="cls-5" d="M746.18,107.88a5.57,5.57,0,0,0,1.7-6.15c-1.64-4.68-9.6.12-11.55-6.48s5.76-8.32,4.24-13.23c-1-3.34-4.57-4.1-5.89-4.31"/><path class="cls-5" d="M709.79,139.1a5.52,5.52,0,0,0,6.29-1c3.56-3.45-4.14-8.66,1-13.2s10,1.73,13.79-1.71c2.6-2.34,1.8-5.87,1.44-7.16"/><path class="cls-5" d="M724.67,96.86s-6.68-.58-8.2,5.49c-.74,2.94,0,6.24,3.66,9.25"/><path class="cls-5" d="M640.63,108.45s6-3,4.19-8.94c-.89-2.9-3.27-5.32-7.92-6"/><path class="cls-5" d="M713.62,230.39s-5,4.51-1.54,9.75c1.66,2.54,4.62,4.2,9.28,3.59"/><path class="cls-5" d="M748.22,160.56s4.85,4.64,9.84.86c2.42-1.83,3.87-4.89,2.93-9.51"/><path class="cls-5" d="M738.61,106.82s-4.92,3.53-9.89.82"/><path class="cls-5" d="M763.71,103.29s-4.92,3.53-9.89.82"/><path class="cls-5" d="M722.54,130s4.71,3.81,3.43,9.32"/><path class="cls-5" d="M776.21,92.52s4.72,3.8,3.44,9.31"/><path class="cls-5" d="M753.58,128.6s-1.47,5.87-7,7"/><path class="cls-5" d="M745.46,92.42s8.36-10.24,18.2-3.79"/><path class="cls-5" d="M781.42,140.44a5.53,5.53,0,0,0,6.37-.38c3.89-3.07-3.23-9,2.38-13s9.74,2.75,13.89-.28c2.83-2.06,2.4-5.65,2.17-7"/><path class="cls-5" d="M740.09,116.15a5.53,5.53,0,0,0,3,5.61c4.42,2.24,6.85-6.73,12.82-3.31s1.59,10,6.09,12.49c3.06,1.69,6.14-.2,7.24-1"/><path class="cls-5" d="M784.88,116.53s-1.62-6.51-7.86-6c-3,.25-5.89,2.06-7.56,6.46"/><path class="cls-5" d="M780,133s-4.94-3.51-4-9.09"/><path class="cls-5" d="M795.81,134.76s12.4,4.59,9.49,16"/><path class="cls-5" d="M753.15,170.65a5.52,5.52,0,0,0-2.87,5.69c.69,4.91,9.43,1.77,10.05,8.62s-7.29,7-6.77,12.14c.36,3.48,3.68,4.92,4.93,5.39"/><path class="cls-5" d="M795,147.19a5.53,5.53,0,0,0-6.37-.21c-4.17,2.68,2.36,9.3-3.6,12.74s-9.44-3.67-13.86-1c-3,1.79-2.91,5.4-2.81,6.74"/><path class="cls-5" d="M764.72,142.78a5.51,5.51,0,0,0-5.53-3.18c-4.94.41-2.28,9.32-9.15,9.56s-6.62-7.66-11.75-7.41c-3.49.17-5.11,3.4-5.65,4.63"/><path class="cls-5" d="M775.64,65.85a5.52,5.52,0,0,0-6.27-1.14c-4.52,2.05,1,9.54-5.41,12.08s-8.81-5-13.56-3c-3.23,1.33-3.67,4.92-3.77,6.25"/><path class="cls-5" d="M772.07,185.68s6.44,1.88,9.13-3.77c1.3-2.74,1.18-6.12-1.77-9.79"/><path class="cls-5" d="M760.36,173.18s5.52-2.5,9.86,1.14"/><path class="cls-5" d="M750.82,185.94s-10.22,8.4-18.6.14"/><path class="cls-5" d="M738,151.8s5.12,12.19-5.19,17.86"/><circle class="cls-6" cx="773.57" cy="144.42" r="1.86"/><circle class="cls-6" cx="757.59" cy="111.14" r="1.86"/><circle class="cls-6" cx="792.8" cy="118.16" r="1.86"/><circle class="cls-6" cx="739.63" cy="179.59" r="1.86"/><circle class="cls-6" cx="755.46" cy="95.7" r="1.86"/><circle class="cls-6" cx="759.66" cy="69.26" r="1.86"/><circle class="cls-6" cx="740.84" cy="129.43" r="1.86"/><circle class="cls-6" cx="772.23" cy="101.83" r="1.86"/><circle class="cls-6" cx="812.31" cy="135.24" r="1.86"/><circle class="cls-6" cx="709.73" cy="116.59" r="1.86"/><circle class="cls-6" cx="753.77" cy="155.33" r="1.86"/><circle class="cls-6" cx="785.21" cy="166.94" r="1.86"/></g><circle class="cls-7" cx="668.28" cy="466.11" r="4.49"/><circle class="cls-7" cx="235.16" cy="222.79" r="13.98"/><circle class="cls-7" cx="239.63" cy="259.63" r="7.25"/><circle class="cls-7" cx="188.06" cy="194.67" r="4.49"/><circle class="cls-7" cx="268.62" cy="251.81" r="4.49"/><circle class="cls-7" cx="268.65" cy="223.91" r="5.39"/><circle class="cls-7" cx="666.05" cy="511.91" r="5.39"/><circle class="cls-6" cx="669.67" cy="163.89" r="1.36"/></g></g></svg>